# xmcd
#
# Track frame offsets: 
#        150
#        11785
#        20225
#        31307
#        45150
#        59107
#        70385
#        80607
#        91215
#        105750
#
# Disc length: 1530 seconds
#
# Revision: 0
# Processed by: cddbd v1.5.2PL0 Copyright (c) Steve Scherf et al.
# Submitted via: ExactAudioCopy v0.95b4
#
DISCID=7b05f80a
DTITLE=Various Artist - Country Stars Christmas
DYEAR=2003
DGENRE=Country
TTITLE0=Boots Randolph - Jingle Bells
TTITLE1=George Jones - Joy To The World
TTITLE2=Charlie Rich - God Rest Ye Merry Gentlemen
TTITLE3=Jim Nabors - The First Noel
TTITLE4=Tanya Tucker - Silent Night
TTITLE5=Vikki Carr - What Child Is This
TTITLE6=Jody Miller - O Holy Night
TTITLE7=Sonny James - Away In A Manger
TTITLE8=Marty Robbins - O Little Town Of Bethlehem
TTITLE9=Patti Page - We Wish You A Merry Christmas
EXTD=
EXTT0=
EXTT1=
EXTT2=
EXTT3=
EXTT4=
EXTT5=
EXTT6=
EXTT7=
EXTT8=
EXTT9=
PLAYORDER=
